<svg xmlns="http://www.w3.org/2000/svg" xmlns:xlink="http://www.w3.org/1999/xlink" version="1.0" x="0" y="0" width="2400" height="3371.2203680300245" viewBox="93.5 17.5423583984375 153 214.91529846191406" preserveAspectRatio="xMidYMid meet" color-interpolation-filters="sRGB"><g><defs><linearGradient id="92" x1="0%" y1="0%" x2="100%" y2="0%"><stop offset="0%" stop-color="#fa71cd"></stop> <stop offset="100%" stop-color="#9b59b6"></stop></linearGradient><linearGradient id="93" x1="0%" y1="0%" x2="100%" y2="0%"><stop offset="0%" stop-color="#f9d423"></stop> <stop offset="100%" stop-color="#f83600"></stop></linearGradient><linearGradient id="94" x1="0%" y1="0%" x2="100%" y2="0%"><stop offset="0%" stop-color="#0064d2"></stop> <stop offset="100%" stop-color="#1cb0f6"></stop></linearGradient><linearGradient id="95" x1="0%" y1="0%" x2="100%" y2="0%"><stop offset="0%" stop-color="#f00978"></stop> <stop offset="100%" stop-color="#3f51b1"></stop></linearGradient><linearGradient id="96" x1="0%" y1="0%" x2="100%" y2="0%"><stop offset="0%" stop-color="#7873f5"></stop> <stop offset="100%" stop-color="#ec77ab"></stop></linearGradient><linearGradient id="97" x1="0%" y1="0%" x2="100%" y2="0%"><stop offset="0%" stop-color="#f9d423"></stop> <stop offset="100%" stop-color="#e14fad"></stop></linearGradient><linearGradient id="98" x1="0%" y1="0%" x2="100%" y2="0%"><stop offset="0%" stop-color="#009efd"></stop> <stop offset="100%" stop-color="#2af598"></stop></linearGradient><linearGradient id="99" x1="0%" y1="0%" x2="100%" y2="0%"><stop offset="0%" stop-color="#ffcc00"></stop> <stop offset="100%" stop-color="#00b140"></stop></linearGradient><linearGradient id="100" x1="0%" y1="0%" x2="100%" y2="0%"><stop offset="0%" stop-color="#d51007"></stop> <stop offset="100%" stop-color="#ff8177"></stop></linearGradient><linearGradient id="102" x1="0%" y1="0%" x2="100%" y2="0%"><stop offset="0%" stop-color="#a2b6df"></stop> <stop offset="100%" stop-color="#0c3483"></stop></linearGradient><linearGradient id="103" x1="0%" y1="0%" x2="100%" y2="0%"><stop offset="0%" stop-color="#7ac5d8"></stop> <stop offset="100%" stop-color="#eea2a2"></stop></linearGradient><linearGradient id="104" x1="0%" y1="0%" x2="100%" y2="0%"><stop offset="0%" stop-color="#00ecbc"></stop> <stop offset="100%" stop-color="#007adf"></stop></linearGradient><linearGradient id="105" x1="0%" y1="0%" x2="100%" y2="0%"><stop offset="0%" stop-color="#b88746"></stop> <stop offset="100%" stop-color="#fdf5a6"></stop></linearGradient></defs><g class="iconmbgsvg" transform="translate(95,19.0423583984375)"><g fill="#fff" hollow-target="textRect"><g mask="url(#20a802c0-6539-43d4-bc4d-6b3e3632c36f)"><g><rect fill="#fff" fill-opacity="0" stroke-width="2" x="0" y="0" width="150" height="211.9152903945863" class="image-rect"></rect> <svg filter="url(#colors6920376698)" x="0" y="0" width="150" height="211.9152903945863" filtersec="colorsf8807174759" class="image-svg-svg primary" style="overflow: visible;"><svg xmlns="http://www.w3.org/2000/svg" xmlns:xlink="http://www.w3.org/1999/xlink" version="1.1" viewBox="14 -0.03199958801269531 68 96.06800079345703" x="0px" y="0px"><path d="M48 84.044c-18.752 0-34-15.272-34-34.044v-11.964c0-1.104 0.9-2 2-2h6c1.1 0 2 0.896 2 2s-0.9 2-2 2h-4v9.964c0 16.568 13.452 30.044 30 30.044s30-13.44 30-29.96v-10.048h-4c-1.1 0-2-0.896-2-2s0.9-2 2-2h6c1.1 0 2 0.896 2 2v12.048c0 18.724-15.248 33.96-34 33.96z"></path><path d="M48 76.044c-14.336 0-26-11.684-26-26.044v-23.916c0-14.408 11.664-26.116 26-26.116s26 11.6 26 25.876v24.252c0 14.304-11.664 25.948-26 25.948zM48 3.956c-12.128 0-22 9.916-22 22.116v23.916c0 12.156 9.872 22.044 22 22.044s22-9.852 22-21.96v-24.248c0-12.056-9.872-21.868-22-21.868z"></path><path d="M48 94.036c-1.1 0-2-0.896-2-2v-8c0-1.104 0.9-2 2-2s2 0.896 2 2v8c0 1.104-0.9 2-2 2z"></path><path d="M62 96.036h-28c-1.1 0-2-0.896-2-2s0.9-2 2-2h28c1.1 0 2 0.896 2 2s-0.9 2-2 2z"></path><path d="M62 20.036h-28c-1.1 0-2-0.896-2-2s0.9-2 2-2h28c1.1 0 2 0.896 2 2s-0.9 2-2 2z"></path><path d="M62 32.036h-28c-1.1 0-2-0.896-2-2s0.9-2 2-2h28c1.1 0 2 0.896 2 2s-0.9 2-2 2z"></path><path d="M62 44.036h-28c-1.1 0-2-0.896-2-2s0.9-2 2-2h28c1.1 0 2 0.896 2 2s-0.9 2-2 2z"></path></svg></svg> <defs><filter id="colors6920376698"><feColorMatrix type="matrix" values="0 0 0 0 0.99609375  0 0 0 0 0.99609375  0 0 0 0 0.99609375  0 0 0 1 0" class="icon-feColorMatrix "></feColorMatrix></filter> <filter id="colorsf8807174759"><feColorMatrix type="matrix" values="0 0 0 0 0.99609375  0 0 0 0 0.99609375  0 0 0 0 0.99609375  0 0 0 1 0" class="icon-fecolormatrix"></feColorMatrix></filter> <filter id="colorsb3130731719"><feColorMatrix type="matrix" values="0 0 0 0 0  0 0 0 0 0  0 0 0 0 0  0 0 0 1 0" class="icon-fecolormatrix"></feColorMatrix></filter></defs></g></g> <g transform="translate(34.994998931884766,82.60443878173828)"><g fill-rule="" stroke="#fff" class="tp-name" transform="translate(0,0)"><g transform="scale(1)"><g><path d="M1.5-28.8904Q1.69-33.924 5.2-36.748799999999996 8.71-39.5824 14.5-39.5824L14.5-39.5824Q20.21-39.5824 23.66-37.1536 27.11-34.716 27.11-30.2016L27.11-30.2016Q27.11-27.9752 26.29-26.311999999999998 25.48-24.6576 24.25-23.5048 23.01-22.3608 21.06-20.8824L21.06-20.8824Q19.18-19.448 18.14-18.4448 17.09-17.4416 16.35-16.016 15.6-14.5816 15.6-12.76L15.6-12.76 10.86-12.76Q10.86-15.0392 11.63-16.764 12.42-18.48 13.52-19.588800000000003 14.63-20.706400000000002 16.51-22.1936L16.51-22.1936Q18.98-24.1384 20.15-25.625600000000002 21.32-27.1128 21.32-29.4624L21.32-29.4624Q21.32-32.1464 19.37-33.5456 17.42-34.9536 13.97-34.9536L13.97-34.9536Q10.53-34.9536 8.52-33.3784 6.5-31.8032 6.37-28.828799999999998L6.37-28.828799999999998 1.5-28.8904ZM13.13-6.0632Q14.63-6.0632 15.63-5.148 16.64-4.2328 16.64-2.8072L16.64-2.8072Q16.64-1.3728 15.63-0.43119999999999997 14.63 0.5104 13.13 0.5104L13.13 0.5104Q11.63 0.5104 10.6-0.43119999999999997 9.55-1.3728 9.55-2.8072L9.55-2.8072Q9.55-4.2328 10.6-5.148 11.63-6.0632 13.13-6.0632L13.13-6.0632ZM34.58 0L34.58-40.04 66.17-40.04 66.17-35.059200000000004 40.82-35.059200000000004 40.82-22.704 63.51-22.704 63.51-17.732 40.82-17.732 40.82-4.9808 66.95-4.9808 66.95 0 34.58 0ZM75.08-29.682399999999998L75.08-39.468 80.93-39.468 80.93-29.682399999999998 79.95-12.293600000000001 75.98-12.293600000000001 75.08-29.682399999999998ZM78-6.0632Q79.5-6.0632 80.5-5.148 81.51-4.2328 81.51-2.8072L81.51-2.8072Q81.51-1.3728 80.5-0.43119999999999997 79.5 0.5104 78 0.5104L78 0.5104Q76.51 0.5104 75.47-0.43119999999999997 74.43-1.3728 74.43-2.8072L74.43-2.8072Q74.43-4.2328 75.47-5.148 76.51-6.0632 78-6.0632L78-6.0632Z" transform="translate(-1.5, 40.040000915527344)" stroke-width="1" stroke-linejoin="round" mask="url(#SGiOqr1G0qnDz9NOiuZbT)"></path></g> </g></g> <g fill-rule="" class="tp-slogan" fill="#fff" transform="translate(16.595001220703125,55.0504035949707)"> <g transform="scale(1, 1)"><g transform="scale(1)"><path d="M1.08-7.87L1.08 0L2.08 0L2.08-3.12L3.49-3.12C3.92-3.12 4.32-3.17 4.67-3.27C5.03-3.37 5.34-3.52 5.59-3.72C5.85-3.92 6.05-4.17 6.19-4.48C6.33-4.78 6.40-5.14 6.40-5.56C6.40-5.99 6.33-6.35 6.19-6.65C6.05-6.94 5.85-7.18 5.60-7.36C5.35-7.54 5.04-7.67 4.68-7.75C4.32-7.83 3.92-7.87 3.49-7.87ZM3.37-3.94L2.08-3.94L2.08-7.07L3.37-7.07C4.05-7.07 4.56-6.96 4.90-6.74C5.23-6.52 5.40-6.12 5.40-5.56C5.40-5.00 5.23-4.59 4.90-4.33C4.57-4.07 4.06-3.94 3.37-3.94ZM10.90 0.14C11.39 0.14 11.85 0.05 12.26-0.14C12.67-0.34 13.03-0.61 13.33-0.97C13.63-1.32 13.86-1.75 14.02-2.26C14.19-2.77 14.27-3.34 14.27-3.97C14.27-4.60 14.19-5.16 14.02-5.66C13.86-6.16 13.63-6.58 13.33-6.93C13.03-7.28 12.67-7.55 12.26-7.73C11.85-7.92 11.39-8.02 10.90-8.02C10.40-8.02 9.95-7.92 9.53-7.74C9.12-7.56 8.77-7.29 8.47-6.94C8.18-6.59 7.95-6.17 7.78-5.67C7.62-5.17 7.54-4.60 7.54-3.97C7.54-3.34 7.62-2.77 7.78-2.26C7.95-1.75 8.18-1.32 8.47-0.97C8.77-0.61 9.12-0.34 9.53-0.14C9.95 0.05 10.40 0.14 10.90 0.14ZM10.90-0.73C10.54-0.73 10.23-0.81 9.94-0.96C9.66-1.11 9.41-1.33 9.21-1.61C9.01-1.90 8.85-2.24 8.74-2.63C8.62-3.03 8.57-3.48 8.57-3.97C8.57-4.46 8.62-4.90 8.74-5.29C8.85-5.68 9.01-6.02 9.21-6.29C9.41-6.56 9.66-6.77 9.94-6.92C10.23-7.07 10.54-7.14 10.90-7.14C11.25-7.14 11.57-7.07 11.85-6.92C12.13-6.77 12.38-6.56 12.58-6.29C12.79-6.02 12.94-5.68 13.06-5.29C13.17-4.90 13.22-4.46 13.22-3.97C13.22-3.48 13.17-3.03 13.06-2.63C12.94-2.24 12.79-1.90 12.58-1.61C12.38-1.33 12.13-1.11 11.85-0.96C11.57-0.81 11.25-0.73 10.90-0.73ZM15.96-7.87L15.96 0L17.98 0C18.57 0 19.09-0.09 19.55-0.27C20.00-0.45 20.39-0.71 20.70-1.05C21.01-1.39 21.25-1.81 21.41-2.30C21.57-2.79 21.65-3.35 21.65-3.97C21.65-5.23 21.33-6.19 20.70-6.86C20.07-7.54 19.14-7.87 17.93-7.87ZM17.86-0.82L16.96-0.82L16.96-7.06L17.86-7.06C18.78-7.06 19.47-6.79 19.93-6.26C20.39-5.74 20.62-4.97 20.62-3.97C20.62-2.97 20.39-2.20 19.93-1.64C19.47-1.09 18.78-0.82 17.86-0.82ZM22.88-3.94C22.88-3.30 22.97-2.72 23.14-2.21C23.31-1.71 23.55-1.28 23.86-0.93C24.17-0.58 24.53-0.32 24.95-0.13C25.37 0.05 25.83 0.14 26.33 0.14C26.83 0.14 27.28 0.04 27.67-0.16C28.06-0.36 28.42-0.64 28.73-1.00L28.16-1.61C27.91-1.33 27.64-1.11 27.35-0.96C27.07-0.81 26.74-0.73 26.35-0.73C25.98-0.73 25.64-0.81 25.34-0.96C25.04-1.11 24.78-1.33 24.58-1.61C24.37-1.89 24.21-2.23 24.09-2.62C23.97-3.02 23.92-3.46 23.92-3.96C23.92-4.45 23.98-4.89 24.10-5.28C24.22-5.67 24.38-6.01 24.60-6.28C24.82-6.56 25.08-6.77 25.38-6.92C25.68-7.07 26.02-7.14 26.40-7.14C26.74-7.14 27.03-7.07 27.28-6.94C27.53-6.81 27.76-6.63 27.97-6.41L28.54-7.04C28.30-7.30 28.01-7.53 27.65-7.72C27.29-7.92 26.87-8.02 26.39-8.02C25.88-8.02 25.42-7.92 24.99-7.73C24.56-7.55 24.19-7.28 23.88-6.92C23.57-6.57 23.32-6.14 23.15-5.64C22.97-5.14 22.88-4.57 22.88-3.94ZM33.54-3.20L31.18-3.20L31.55-4.40C31.69-4.84 31.83-5.28 31.96-5.72C32.08-6.15 32.21-6.60 32.33-7.06L32.38-7.06C32.50-6.60 32.63-6.15 32.76-5.72C32.89-5.28 33.02-4.84 33.17-4.40ZM33.79-2.40L34.54 0L35.60 0L32.94-7.87L31.81-7.87L29.15 0L30.17 0L30.92-2.40ZM36.74-1.72L36.14-1.02C36.49-0.66 36.90-0.38 37.37-0.17C37.84 0.04 38.35 0.14 38.90 0.14C39.32 0.14 39.69 0.09 40.02-0.03C40.35-0.15 40.63-0.31 40.86-0.51C41.09-0.71 41.27-0.95 41.39-1.22C41.52-1.50 41.58-1.79 41.58-2.10C41.58-2.39 41.54-2.64 41.45-2.86C41.37-3.08 41.26-3.27 41.11-3.44C40.97-3.60 40.80-3.75 40.60-3.87C40.40-3.99 40.18-4.10 39.96-4.20L38.84-4.68C38.68-4.74 38.53-4.81 38.38-4.89C38.22-4.97 38.08-5.05 37.96-5.15C37.83-5.25 37.73-5.37 37.65-5.50C37.57-5.63 37.54-5.80 37.54-5.99C37.54-6.35 37.67-6.63 37.94-6.83C38.21-7.04 38.56-7.14 39-7.14C39.37-7.14 39.70-7.07 39.99-6.94C40.28-6.81 40.55-6.63 40.79-6.40L41.33-7.04C41.05-7.33 40.71-7.57 40.31-7.75C39.91-7.93 39.47-8.02 39-8.02C38.64-8.02 38.31-7.96 38.01-7.86C37.71-7.76 37.45-7.61 37.23-7.42C37.01-7.23 36.84-7.01 36.71-6.76C36.59-6.50 36.53-6.22 36.53-5.93C36.53-5.64 36.58-5.39 36.67-5.17C36.77-4.95 36.89-4.76 37.04-4.60C37.20-4.44 37.37-4.30 37.56-4.19C37.75-4.08 37.94-3.98 38.12-3.90L39.25-3.41C39.44-3.32 39.61-3.24 39.77-3.16C39.93-3.08 40.07-2.99 40.18-2.89C40.30-2.79 40.39-2.67 40.46-2.53C40.53-2.39 40.56-2.22 40.56-2.02C40.56-1.63 40.42-1.32 40.13-1.09C39.84-0.85 39.44-0.73 38.92-0.73C38.51-0.73 38.11-0.82 37.73-1.00C37.35-1.18 37.02-1.42 36.74-1.72ZM44.52-7.03L44.52 0L45.53 0L45.53-7.03L47.90-7.03L47.90-7.87L42.14-7.87L42.14-7.03Z" transform="translate(-1.08, 8.016)"></path></g></g></g></g></g></g><mask id="SGiOqr1G0qnDz9NOiuZbT"><path d="M1.5-28.8904Q1.69-33.924 5.2-36.748799999999996 8.71-39.5824 14.5-39.5824L14.5-39.5824Q20.21-39.5824 23.66-37.1536 27.11-34.716 27.11-30.2016L27.11-30.2016Q27.11-27.9752 26.29-26.311999999999998 25.48-24.6576 24.25-23.5048 23.01-22.3608 21.06-20.8824L21.06-20.8824Q19.18-19.448 18.14-18.4448 17.09-17.4416 16.35-16.016 15.6-14.5816 15.6-12.76L15.6-12.76 10.86-12.76Q10.86-15.0392 11.63-16.764 12.42-18.48 13.52-19.588800000000003 14.63-20.706400000000002 16.51-22.1936L16.51-22.1936Q18.98-24.1384 20.15-25.625600000000002 21.32-27.1128 21.32-29.4624L21.32-29.4624Q21.32-32.1464 19.37-33.5456 17.42-34.9536 13.97-34.9536L13.97-34.9536Q10.53-34.9536 8.52-33.3784 6.5-31.8032 6.37-28.828799999999998L6.37-28.828799999999998 1.5-28.8904ZM13.13-6.0632Q14.63-6.0632 15.63-5.148 16.64-4.2328 16.64-2.8072L16.64-2.8072Q16.64-1.3728 15.63-0.43119999999999997 14.63 0.5104 13.13 0.5104L13.13 0.5104Q11.63 0.5104 10.6-0.43119999999999997 9.55-1.3728 9.55-2.8072L9.55-2.8072Q9.55-4.2328 10.6-5.148 11.63-6.0632 13.13-6.0632L13.13-6.0632ZM34.58 0L34.58-40.04 66.17-40.04 66.17-35.059200000000004 40.82-35.059200000000004 40.82-22.704 63.51-22.704 63.51-17.732 40.82-17.732 40.82-4.9808 66.95-4.9808 66.95 0 34.58 0ZM75.08-29.682399999999998L75.08-39.468 80.93-39.468 80.93-29.682399999999998 79.95-12.293600000000001 75.98-12.293600000000001 75.08-29.682399999999998ZM78-6.0632Q79.5-6.0632 80.5-5.148 81.51-4.2328 81.51-2.8072L81.51-2.8072Q81.51-1.3728 80.5-0.43119999999999997 79.5 0.5104 78 0.5104L78 0.5104Q76.51 0.5104 75.47-0.43119999999999997 74.43-1.3728 74.43-2.8072L74.43-2.8072Q74.43-4.2328 75.47-5.148 76.51-6.0632 78-6.0632L78-6.0632Z" stroke-width="1" stroke-linejoin="round" stroke="#000" fill="#fff"></path></mask><mask id="20a802c0-6539-43d4-bc4d-6b3e3632c36f"><g fill="white"><g><rect fill-opacity="1" stroke-width="2" x="0" y="0" width="150" height="211.9152903945863" class="image-rect"></rect> <svg x="0" y="0" width="150" height="211.9152903945863" class="image-svg-svg primary" style="overflow: visible;" filter="url(#colorsf8807174759)"><svg xmlns="http://www.w3.org/2000/svg" xmlns:xlink="http://www.w3.org/1999/xlink" version="1.1" viewBox="14 -0.03199958801269531 68 96.06800079345703" x="0px" y="0px"><path d="M48 84.044c-18.752 0-34-15.272-34-34.044v-11.964c0-1.104 0.9-2 2-2h6c1.1 0 2 0.896 2 2s-0.9 2-2 2h-4v9.964c0 16.568 13.452 30.044 30 30.044s30-13.44 30-29.96v-10.048h-4c-1.1 0-2-0.896-2-2s0.9-2 2-2h6c1.1 0 2 0.896 2 2v12.048c0 18.724-15.248 33.96-34 33.96z"></path><path d="M48 76.044c-14.336 0-26-11.684-26-26.044v-23.916c0-14.408 11.664-26.116 26-26.116s26 11.6 26 25.876v24.252c0 14.304-11.664 25.948-26 25.948zM48 3.956c-12.128 0-22 9.916-22 22.116v23.916c0 12.156 9.872 22.044 22 22.044s22-9.852 22-21.96v-24.248c0-12.056-9.872-21.868-22-21.868z"></path><path d="M48 94.036c-1.1 0-2-0.896-2-2v-8c0-1.104 0.9-2 2-2s2 0.896 2 2v8c0 1.104-0.9 2-2 2z"></path><path d="M62 96.036h-28c-1.1 0-2-0.896-2-2s0.9-2 2-2h28c1.1 0 2 0.896 2 2s-0.9 2-2 2z"></path><path d="M62 20.036h-28c-1.1 0-2-0.896-2-2s0.9-2 2-2h28c1.1 0 2 0.896 2 2s-0.9 2-2 2z"></path><path d="M62 32.036h-28c-1.1 0-2-0.896-2-2s0.9-2 2-2h28c1.1 0 2 0.896 2 2s-0.9 2-2 2z"></path><path d="M62 44.036h-28c-1.1 0-2-0.896-2-2s0.9-2 2-2h28c1.1 0 2 0.896 2 2s-0.9 2-2 2z"></path></svg></svg> <defs> </defs></g></g> <g transform="translate(34.994998931884766,82.60443878173828)"><rect fill="black" fill-opacity="1" x="-3" y="-3" width="86.01000213623047" height="46.5504035949707"></rect><rect fill="black" fill-opacity="1" x="-3" y="-3" transform="translate(16.595001220703125,55.0504035949707)" width="53.81999969482422" height="15.160001754760742"></rect></g><g transform="translate(34.994998931884766,82.60443878173828)" fill="black"><g fill-rule="" stroke="#fff" class="tp-name" transform="translate(0,0)"><g transform="scale(1)"><g><path d="M1.5-28.8904Q1.69-33.924 5.2-36.748799999999996 8.71-39.5824 14.5-39.5824L14.5-39.5824Q20.21-39.5824 23.66-37.1536 27.11-34.716 27.11-30.2016L27.11-30.2016Q27.11-27.9752 26.29-26.311999999999998 25.48-24.6576 24.25-23.5048 23.01-22.3608 21.06-20.8824L21.06-20.8824Q19.18-19.448 18.14-18.4448 17.09-17.4416 16.35-16.016 15.6-14.5816 15.6-12.76L15.6-12.76 10.86-12.76Q10.86-15.0392 11.63-16.764 12.42-18.48 13.52-19.588800000000003 14.63-20.706400000000002 16.51-22.1936L16.51-22.1936Q18.98-24.1384 20.15-25.625600000000002 21.32-27.1128 21.32-29.4624L21.32-29.4624Q21.32-32.1464 19.37-33.5456 17.42-34.9536 13.97-34.9536L13.97-34.9536Q10.53-34.9536 8.52-33.3784 6.5-31.8032 6.37-28.828799999999998L6.37-28.828799999999998 1.5-28.8904ZM13.13-6.0632Q14.63-6.0632 15.63-5.148 16.64-4.2328 16.64-2.8072L16.64-2.8072Q16.64-1.3728 15.63-0.43119999999999997 14.63 0.5104 13.13 0.5104L13.13 0.5104Q11.63 0.5104 10.6-0.43119999999999997 9.55-1.3728 9.55-2.8072L9.55-2.8072Q9.55-4.2328 10.6-5.148 11.63-6.0632 13.13-6.0632L13.13-6.0632ZM34.58 0L34.58-40.04 66.17-40.04 66.17-35.059200000000004 40.82-35.059200000000004 40.82-22.704 63.51-22.704 63.51-17.732 40.82-17.732 40.82-4.9808 66.95-4.9808 66.95 0 34.58 0ZM75.08-29.682399999999998L75.08-39.468 80.93-39.468 80.93-29.682399999999998 79.95-12.293600000000001 75.98-12.293600000000001 75.08-29.682399999999998ZM78-6.0632Q79.5-6.0632 80.5-5.148 81.51-4.2328 81.51-2.8072L81.51-2.8072Q81.51-1.3728 80.5-0.43119999999999997 79.5 0.5104 78 0.5104L78 0.5104Q76.51 0.5104 75.47-0.43119999999999997 74.43-1.3728 74.43-2.8072L74.43-2.8072Q74.43-4.2328 75.47-5.148 76.51-6.0632 78-6.0632L78-6.0632Z" transform="translate(-1.5, 40.040000915527344)" stroke-width="1" stroke-linejoin="round" mask="url(#SGiOqr1G0qnDz9NOiuZbT)"></path></g> </g></g> <g fill-rule="" class="tp-slogan" transform="translate(16.595001220703125,55.0504035949707)" fill="white"> <g transform="scale(1, 1)"><g transform="scale(1)"><path d="M1.08-7.87L1.08 0L2.08 0L2.08-3.12L3.49-3.12C3.92-3.12 4.32-3.17 4.67-3.27C5.03-3.37 5.34-3.52 5.59-3.72C5.85-3.92 6.05-4.17 6.19-4.48C6.33-4.78 6.40-5.14 6.40-5.56C6.40-5.99 6.33-6.35 6.19-6.65C6.05-6.94 5.85-7.18 5.60-7.36C5.35-7.54 5.04-7.67 4.68-7.75C4.32-7.83 3.92-7.87 3.49-7.87ZM3.37-3.94L2.08-3.94L2.08-7.07L3.37-7.07C4.05-7.07 4.56-6.96 4.90-6.74C5.23-6.52 5.40-6.12 5.40-5.56C5.40-5.00 5.23-4.59 4.90-4.33C4.57-4.07 4.06-3.94 3.37-3.94ZM10.90 0.14C11.39 0.14 11.85 0.05 12.26-0.14C12.67-0.34 13.03-0.61 13.33-0.97C13.63-1.32 13.86-1.75 14.02-2.26C14.19-2.77 14.27-3.34 14.27-3.97C14.27-4.60 14.19-5.16 14.02-5.66C13.86-6.16 13.63-6.58 13.33-6.93C13.03-7.28 12.67-7.55 12.26-7.73C11.85-7.92 11.39-8.02 10.90-8.02C10.40-8.02 9.95-7.92 9.53-7.74C9.12-7.56 8.77-7.29 8.47-6.94C8.18-6.59 7.95-6.17 7.78-5.67C7.62-5.17 7.54-4.60 7.54-3.97C7.54-3.34 7.62-2.77 7.78-2.26C7.95-1.75 8.18-1.32 8.47-0.97C8.77-0.61 9.12-0.34 9.53-0.14C9.95 0.05 10.40 0.14 10.90 0.14ZM10.90-0.73C10.54-0.73 10.23-0.81 9.94-0.96C9.66-1.11 9.41-1.33 9.21-1.61C9.01-1.90 8.85-2.24 8.74-2.63C8.62-3.03 8.57-3.48 8.57-3.97C8.57-4.46 8.62-4.90 8.74-5.29C8.85-5.68 9.01-6.02 9.21-6.29C9.41-6.56 9.66-6.77 9.94-6.92C10.23-7.07 10.54-7.14 10.90-7.14C11.25-7.14 11.57-7.07 11.85-6.92C12.13-6.77 12.38-6.56 12.58-6.29C12.79-6.02 12.94-5.68 13.06-5.29C13.17-4.90 13.22-4.46 13.22-3.97C13.22-3.48 13.17-3.03 13.06-2.63C12.94-2.24 12.79-1.90 12.58-1.61C12.38-1.33 12.13-1.11 11.85-0.96C11.57-0.81 11.25-0.73 10.90-0.73ZM15.96-7.87L15.96 0L17.98 0C18.57 0 19.09-0.09 19.55-0.27C20.00-0.45 20.39-0.71 20.70-1.05C21.01-1.39 21.25-1.81 21.41-2.30C21.57-2.79 21.65-3.35 21.65-3.97C21.65-5.23 21.33-6.19 20.70-6.86C20.07-7.54 19.14-7.87 17.93-7.87ZM17.86-0.82L16.96-0.82L16.96-7.06L17.86-7.06C18.78-7.06 19.47-6.79 19.93-6.26C20.39-5.74 20.62-4.97 20.62-3.97C20.62-2.97 20.39-2.20 19.93-1.64C19.47-1.09 18.78-0.82 17.86-0.82ZM22.88-3.94C22.88-3.30 22.97-2.72 23.14-2.21C23.31-1.71 23.55-1.28 23.86-0.93C24.17-0.58 24.53-0.32 24.95-0.13C25.37 0.05 25.83 0.14 26.33 0.14C26.83 0.14 27.28 0.04 27.67-0.16C28.06-0.36 28.42-0.64 28.73-1.00L28.16-1.61C27.91-1.33 27.64-1.11 27.35-0.96C27.07-0.81 26.74-0.73 26.35-0.73C25.98-0.73 25.64-0.81 25.34-0.96C25.04-1.11 24.78-1.33 24.58-1.61C24.37-1.89 24.21-2.23 24.09-2.62C23.97-3.02 23.92-3.46 23.92-3.96C23.92-4.45 23.98-4.89 24.10-5.28C24.22-5.67 24.38-6.01 24.60-6.28C24.82-6.56 25.08-6.77 25.38-6.92C25.68-7.07 26.02-7.14 26.40-7.14C26.74-7.14 27.03-7.07 27.28-6.94C27.53-6.81 27.76-6.63 27.97-6.41L28.54-7.04C28.30-7.30 28.01-7.53 27.65-7.72C27.29-7.92 26.87-8.02 26.39-8.02C25.88-8.02 25.42-7.92 24.99-7.73C24.56-7.55 24.19-7.28 23.88-6.92C23.57-6.57 23.32-6.14 23.15-5.64C22.97-5.14 22.88-4.57 22.88-3.94ZM33.54-3.20L31.18-3.20L31.55-4.40C31.69-4.84 31.83-5.28 31.96-5.72C32.08-6.15 32.21-6.60 32.33-7.06L32.38-7.06C32.50-6.60 32.63-6.15 32.76-5.72C32.89-5.28 33.02-4.84 33.17-4.40ZM33.79-2.40L34.54 0L35.60 0L32.94-7.87L31.81-7.87L29.15 0L30.17 0L30.92-2.40ZM36.74-1.72L36.14-1.02C36.49-0.66 36.90-0.38 37.37-0.17C37.84 0.04 38.35 0.14 38.90 0.14C39.32 0.14 39.69 0.09 40.02-0.03C40.35-0.15 40.63-0.31 40.86-0.51C41.09-0.71 41.27-0.95 41.39-1.22C41.52-1.50 41.58-1.79 41.58-2.10C41.58-2.39 41.54-2.64 41.45-2.86C41.37-3.08 41.26-3.27 41.11-3.44C40.97-3.60 40.80-3.75 40.60-3.87C40.40-3.99 40.18-4.10 39.96-4.20L38.84-4.68C38.68-4.74 38.53-4.81 38.38-4.89C38.22-4.97 38.08-5.05 37.96-5.15C37.83-5.25 37.73-5.37 37.65-5.50C37.57-5.63 37.54-5.80 37.54-5.99C37.54-6.35 37.67-6.63 37.94-6.83C38.21-7.04 38.56-7.14 39-7.14C39.37-7.14 39.70-7.07 39.99-6.94C40.28-6.81 40.55-6.63 40.79-6.40L41.33-7.04C41.05-7.33 40.71-7.57 40.31-7.75C39.91-7.93 39.47-8.02 39-8.02C38.64-8.02 38.31-7.96 38.01-7.86C37.71-7.76 37.45-7.61 37.23-7.42C37.01-7.23 36.84-7.01 36.71-6.76C36.59-6.50 36.53-6.22 36.53-5.93C36.53-5.64 36.58-5.39 36.67-5.17C36.77-4.95 36.89-4.76 37.04-4.60C37.20-4.44 37.37-4.30 37.56-4.19C37.75-4.08 37.94-3.98 38.12-3.90L39.25-3.41C39.44-3.32 39.61-3.24 39.77-3.16C39.93-3.08 40.07-2.99 40.18-2.89C40.30-2.79 40.39-2.67 40.46-2.53C40.53-2.39 40.56-2.22 40.56-2.02C40.56-1.63 40.42-1.32 40.13-1.09C39.84-0.85 39.44-0.73 38.92-0.73C38.51-0.73 38.11-0.82 37.73-1.00C37.35-1.18 37.02-1.42 36.74-1.72ZM44.52-7.03L44.52 0L45.53 0L45.53-7.03L47.90-7.03L47.90-7.87L42.14-7.87L42.14-7.03Z" transform="translate(-1.08, 8.016)"></path></g></g></g></g></mask><defs v-gra="od"></defs></g></svg>